<svg width="3668" height="509" viewBox="0 0 3668 509" fill="none" xmlns="http://www.w3.org/2000/svg">
<path fill-rule="evenodd" clip-rule="evenodd" d="M1260.94 393.262C1270.76 370.426 1275.66 345.18 1275.66 317.516C1275.66 289.852 1270.76 265.7 1260.94 243.087C1251.13 220.251 1237.78 200.494 1220.89 183.81C1204.01 167.125 1184.15 154.167 1161.33 144.951C1138.74 135.512 1114.43 130.792 1088.42 130.792C1079.97 130.792 1071.3 131.67 1062.4 133.425C1053.5 134.965 1044.83 137.267 1036.38 140.339C1028.17 143.411 1020.41 147.361 1013.11 152.196C1006.04 157.024 999.984 162.513 994.963 168.665V4H901.168V317.524C901.168 344.748 906.073 369.779 915.892 392.607C925.702 415.22 939.053 434.761 955.939 451.23C973.056 467.699 992.909 480.541 1015.51 489.765C1038.33 498.989 1062.63 503.593 1088.42 503.593C1114.2 503.593 1138.74 499.096 1161.33 490.088C1184.15 481.088 1204.01 468.461 1220.89 452.215C1237.78 435.746 1251.13 416.098 1260.94 393.262ZM1174 279.643C1179.02 291.277 1181.53 303.904 1181.53 317.516C1181.53 331.128 1179.02 343.755 1174 355.389C1169.2 367.022 1162.58 377.124 1154.14 385.686C1145.7 394.247 1135.77 401.053 1124.36 406.104C1113.17 410.932 1101.19 413.349 1088.42 413.349C1075.64 413.349 1063.54 410.932 1052.14 406.104C1040.95 401.053 1031.14 394.247 1022.69 385.686C1014.25 377.124 1007.63 367.022 1002.84 355.389C998.047 343.755 995.652 331.128 995.652 317.516C995.652 305.22 998.047 293.363 1002.84 281.945C1007.63 270.311 1014.25 260.102 1022.69 251.317C1031.14 242.317 1040.95 235.179 1052.14 229.913C1063.54 224.424 1075.64 221.683 1088.42 221.683C1101.19 221.683 1113.17 224.1 1124.36 228.928C1135.77 233.755 1145.7 240.453 1154.14 249.015C1162.58 257.577 1169.2 267.786 1174 279.643Z" fill="white"/>
<path fill-rule="evenodd" clip-rule="evenodd" d="M1591.41 280.099L1659.72 213.749C1651.52 200.327 1641.73 188.442 1630.35 178.092C1619.18 167.75 1606.89 159.052 1593.46 152.014C1580.25 144.751 1566.25 139.248 1551.45 135.505C1536.88 131.762 1521.96 129.894 1506.71 129.894C1480.98 129.894 1456.73 134.957 1433.96 145.083C1411.42 155.209 1391.61 169.07 1374.53 186.674C1357.69 204.063 1344.36 224.531 1334.58 248.078C1324.78 271.625 1319.89 296.932 1319.89 324.006C1319.89 348.873 1324.78 372.204 1334.58 393.992C1344.36 415.779 1357.69 434.819 1374.53 451.104C1391.61 467.388 1411.42 480.262 1433.96 489.732C1456.73 498.978 1480.98 503.593 1506.71 503.593C1521.96 503.593 1536.77 501.833 1551.11 498.314C1565.68 495.011 1579.45 490.063 1592.43 483.457C1605.64 476.858 1617.82 468.824 1628.98 459.362C1640.36 449.9 1650.38 439.226 1659.03 427.34L1590.73 360.99C1587.08 368.916 1582.31 376.171 1576.38 382.777C1570.69 389.16 1564.09 394.663 1556.58 399.286C1549.29 403.685 1541.43 407.096 1533.01 409.52C1524.58 411.943 1515.82 413.155 1506.71 413.155C1493.96 413.155 1481.89 410.847 1470.51 406.224C1459.35 401.601 1449.56 395.219 1441.13 387.076C1432.94 378.934 1426.45 369.472 1421.66 358.682C1416.88 347.901 1414.5 336.347 1414.5 324.021C1414.5 308.833 1416.88 294.971 1421.66 282.422C1426.45 269.881 1432.94 259.091 1441.13 250.069C1449.56 240.823 1459.35 233.676 1470.51 228.613C1481.89 223.55 1493.96 221.019 1506.71 221.019C1515.82 221.019 1524.7 222.339 1533.35 224.978C1542 227.618 1549.97 231.469 1557.26 236.532C1564.77 241.595 1571.49 247.869 1577.4 255.348C1583.33 262.61 1588 270.861 1591.41 280.107V280.099Z" fill="white"/>
<path fill-rule="evenodd" clip-rule="evenodd" d="M1798.36 503.585H1703.94V4H1798.36V503.593V503.585Z" fill="white"/>
<path fill-rule="evenodd" clip-rule="evenodd" d="M2201.98 391.039C2211.78 368.147 2216.68 343.502 2216.68 317.091C2216.68 288.919 2211.78 263.388 2201.98 240.496C2192.18 217.387 2178.85 197.691 2161.97 181.398C2145.1 164.888 2125.27 152.238 2102.47 143.432C2079.9 134.409 2055.62 129.894 2029.63 129.894C2003.64 129.894 1979.59 134.625 1956.8 144.088C1934.23 153.55 1914.39 166.648 1897.3 183.373C1880.42 199.883 1867.09 219.579 1857.29 242.464C1847.49 265.356 1842.59 290.224 1842.59 317.075C1842.59 343.927 1847.49 368.139 1857.29 391.023C1867.09 413.691 1880.42 433.388 1897.3 450.114C1914.39 466.623 1934.23 479.713 1956.8 489.399C1979.59 498.862 2003.88 503.593 2029.63 503.593C2055.39 503.593 2079.9 498.862 2102.47 489.399C2125.27 479.713 2145.1 466.623 2161.97 450.114C2178.85 433.388 2192.18 413.691 2201.98 391.023V391.039ZM2115.12 277.805C2120.14 289.467 2122.65 302.565 2122.65 317.091C2122.65 331.616 2120.14 344.49 2115.12 356.376C2110.34 368.262 2103.73 378.389 2095.29 386.747C2086.85 395.114 2076.94 401.605 2065.54 406.228C2054.37 410.851 2042.4 413.159 2029.63 413.159C2016.86 413.159 2004.78 410.735 1993.39 405.896C1982.22 400.833 1972.41 394.01 1963.98 385.428C1955.77 376.845 1949.27 366.719 1944.49 355.056C1939.7 343.394 1937.3 330.737 1937.3 317.091C1937.3 302.565 1939.7 289.467 1944.49 277.805C1949.27 265.919 1955.77 255.793 1963.98 247.434C1972.41 238.852 1982.22 232.361 1993.39 227.954C2004.78 223.33 2016.87 221.023 2029.63 221.023C2042.4 221.023 2054.37 223.33 2065.54 227.954C2076.94 232.353 2086.85 238.844 2095.29 247.434C2103.73 255.801 2110.34 265.919 2115.12 277.805Z" fill="white"/>
<path d="M2424.62 413.8H2424.68C2434.47 413.8 2443.7 412.148 2452.36 408.845C2460.79 405.542 2468.2 400.703 2474.57 394.321C2480.95 387.938 2486.08 380.128 2489.95 370.883C2493.6 361.421 2495.42 350.748 2495.42 338.863V130.293H2588.39V338.863C2588.39 364.168 2584.17 387.058 2575.74 407.525C2567.08 427.776 2555.35 445.048 2540.54 459.356C2525.5 473.441 2508.07 484.338 2488.24 492.04C2468.42 499.742 2447.23 503.593 2424.68 503.593H2424.62C2402.07 503.593 2380.87 499.742 2361.05 492.04C2341.22 484.338 2323.8 473.441 2308.76 459.356C2293.95 445.048 2282.21 427.776 2273.56 407.525C2265.12 387.058 2260.91 364.168 2260.91 338.863V130.293H2353.87V338.863C2353.87 350.748 2355.7 361.421 2359.34 370.883C2363.21 380.128 2368.34 387.938 2374.72 394.321C2381.1 400.703 2388.5 405.542 2396.94 408.845C2405.59 412.148 2414.82 413.8 2424.62 413.8Z" fill="white"/>
<path fill-rule="evenodd" clip-rule="evenodd" d="M2912.67 503.593H3006.71V5.3944H2912.67V167.866C2907.66 160.828 2901.5 154.885 2894.2 150.038C2886.91 145.199 2879.05 141.348 2870.61 138.485C2862.41 135.405 2853.86 133.206 2844.97 131.886C2836.3 130.566 2827.87 129.902 2819.66 129.902C2793.9 129.902 2769.62 134.633 2746.83 144.095C2724.26 153.558 2704.42 166.655 2687.32 183.379C2670.46 200.104 2657.12 219.916 2647.32 242.799C2637.51 265.69 2632.61 290.449 2632.61 317.076C2632.61 343.702 2637.51 368.793 2647.32 391.684C2657.12 414.351 2670.46 434.047 2687.32 450.78C2704.42 467.288 2724.26 480.269 2746.83 489.732C2769.62 498.978 2793.9 503.593 2819.66 503.593C2831.52 503.593 2843.14 502.165 2854.54 499.302C2866.17 496.438 2877.45 492.587 2888.39 487.748C2904.92 480.436 2901.53 481.482 2912.67 473.514V503.593ZM2905.15 281.427C2910.17 292.872 2912.67 304.758 2912.67 317.083C2912.67 329.409 2910.17 341.402 2905.15 353.064C2900.36 364.509 2893.75 374.743 2885.32 383.766C2876.88 392.572 2866.96 399.718 2855.57 405.221C2844.39 410.5 2832.43 413.147 2819.66 413.147C2806.9 413.147 2794.81 410.616 2783.42 405.553C2772.24 400.49 2762.44 393.559 2754 384.753C2745.8 375.947 2739.3 365.713 2734.51 354.052C2729.73 342.39 2727.34 330.065 2727.34 317.076C2727.34 302.111 2729.73 288.682 2734.51 276.804C2739.3 264.918 2745.8 254.908 2754 246.766C2762.44 238.4 2772.24 232.017 2783.42 227.618C2794.81 223.219 2806.9 221.019 2819.66 221.019C2832.43 221.019 2844.39 223.775 2855.57 229.27C2866.96 234.549 2876.88 241.703 2885.32 250.725C2893.75 259.531 2900.36 269.765 2905.15 281.427Z" fill="white"/>
<path d="M3416.26 310.884C3416.26 321.301 3415.61 332.152 3414.31 343.436H3161.84C3163.58 366.006 3170.75 383.367 3183.36 395.52C3196.41 407.238 3212.29 413.098 3230.99 413.098C3258.82 413.098 3278.18 401.379 3289.05 377.942H3407.78C3401.69 401.813 3390.6 423.298 3374.51 442.395C3358.85 461.492 3339.07 476.466 3315.15 487.317C3291.22 498.167 3264.48 503.593 3234.9 503.593C3199.24 503.593 3167.49 495.997 3139.66 480.806C3111.82 465.615 3090.07 443.914 3074.42 415.702C3058.76 387.49 3050.93 354.504 3050.93 316.744C3050.93 278.983 3058.54 245.997 3073.77 217.785C3089.42 189.573 3111.17 167.872 3139 152.681C3166.84 137.49 3198.8 129.894 3234.9 129.894C3270.13 129.894 3301.45 137.273 3328.85 152.03C3356.25 166.787 3377.56 187.837 3392.78 215.181C3408.44 242.525 3416.26 274.426 3416.26 310.884ZM3302.1 281.587C3302.1 262.49 3295.57 247.299 3282.53 236.014C3269.48 224.729 3253.17 219.087 3233.6 219.087C3214.9 219.087 3199.02 224.512 3185.97 235.363C3173.36 246.214 3165.53 261.622 3162.49 281.587H3302.1Z" fill="white"/>
<path d="M3555.5 164.952C3569.5 141.281 3640.87 131.088 3667.26 131.088V224.881H3639.17C3613.67 224.881 3594.55 231.032 3581.8 243.334C3569.05 255.197 3555.5 273.678 3555.5 303.995V503.792H3460.49V131.088H3555.5V164.952Z" fill="white"/>
<path d="M768.445 306.283C768.445 307.289 768.445 308.276 768.445 309.283C768.445 313.546 768.445 317.789 768.445 322.053C768.188 338.494 765.524 354.54 760.806 370.251C753.917 393.245 742.627 413.91 727.625 432.601C717.144 445.647 705.281 457.292 692.273 467.773C688.088 471.148 683.391 473.773 678.811 476.556C664.737 485.062 650.052 492.286 634.537 497.793C623.345 501.78 611.897 504.701 600.152 506.458C594.487 507.306 588.763 507.76 583.039 508.076C579.17 508.076 575.281 508.076 571.412 508.076C564.938 507.78 558.464 507.326 552.029 506.497C541.765 505.155 531.639 503.063 521.69 500.161C495.24 492.424 471.317 479.852 450.039 462.365C427.122 443.535 409.199 420.778 396.744 393.817C390.25 379.784 385.651 365.139 383.006 349.882C381.565 341.632 380.795 333.342 380.4 324.993C380.143 319.881 380.124 314.77 380.104 309.658C380.104 307.802 380.104 307.802 378.288 307.802C372.366 307.802 366.425 307.842 360.503 307.802C352.608 307.743 345.877 302.631 343.706 295.052C342.028 289.17 343.35 283.9 347.338 279.381C353.299 272.65 359.378 266.058 365.418 259.407C375.939 247.801 386.46 236.215 396.981 224.61C401.382 219.754 405.784 214.919 410.206 210.063C413.699 206.234 417.983 204.123 423.214 204.024C428.385 203.925 432.708 205.78 436.261 209.491C438.294 211.603 440.228 213.814 442.202 215.985C450.335 224.945 458.467 233.906 466.599 242.867C477.574 254.966 488.608 267.045 499.524 279.203C503.866 284.019 505.228 289.684 503.077 295.881C500.905 302.138 496.425 305.967 489.95 307.447C488.608 307.763 487.226 307.822 485.864 307.822C479.509 307.822 473.133 307.822 466.777 307.822C466.343 307.822 465.909 307.842 465.474 307.822C464.665 307.763 464.369 308.118 464.389 308.927C464.389 311.177 464.389 313.427 464.349 315.658C463.895 340.625 471.988 362.711 487.345 382.152C501.794 400.449 520.388 412.844 542.614 419.811C550.845 422.397 559.273 424.035 567.899 424.667C598.455 426.917 626.01 418.982 650.052 399.916C669.929 384.146 682.838 363.738 688.523 338.948C690.714 329.415 691.464 319.704 690.812 309.954C689.194 285.598 680.252 264.203 664.086 245.946C647.505 227.215 626.819 215.432 602.422 210.063C593.619 208.129 584.697 207.458 575.676 207.419C565.728 207.379 555.898 206.353 546.265 203.649C532.073 199.662 520.644 191.649 511.505 180.162C506.097 173.352 501.557 165.97 497.293 158.411C492.299 149.569 487.365 140.667 482.371 131.825C477.495 123.22 471.159 115.779 463.816 109.206C443.88 91.3637 420.509 80.2516 394.592 74.3305C386.677 72.5146 378.663 71.508 370.531 71.1133C361.707 70.6791 352.963 71.1528 344.219 72.2975C314.887 76.1463 288.891 87.6531 266.093 106.403C249.335 120.18 235.991 136.72 226.201 156.102C220.279 167.806 216.114 180.102 214.002 193.05C213.232 197.787 212.699 202.563 212.719 207.379C212.719 212.55 212.601 217.722 212.028 222.873C211.002 231.893 208.673 240.498 203.876 248.294C197.264 259.051 187.592 265.624 175.531 268.841C169.412 270.479 163.175 271.17 156.839 271.15C150.522 271.111 144.265 271.841 138.126 273.361C125.335 276.519 114.084 282.578 104.432 291.559C93.3783 301.881 85.7789 314.335 82.4035 329.059C76.5608 354.461 82.068 377.317 99.0236 397.153C110.729 410.85 125.829 418.883 143.456 422.199C147.818 423.028 152.259 423.186 156.681 423.127C174.722 422.851 192.743 423.068 210.785 423.048C234.688 423.028 258.592 423.068 282.496 423.087C306.34 423.087 330.165 423.127 354.009 423.147C354.266 423.147 354.503 423.147 354.759 423.147C355.694 423.173 356.167 423.673 356.181 424.647C356.181 424.963 356.181 425.278 356.181 425.574C356.181 450.285 356.181 474.977 356.181 499.688C356.181 500.004 356.181 500.319 356.181 500.615C356.154 501.55 355.661 502.03 354.7 502.056C354.384 502.056 354.069 502.056 353.772 502.056C286.187 502.056 218.601 502.056 151.016 502.056C132.283 502.056 114.005 499.254 96.2996 493.036C73.8764 485.161 54.4139 472.687 38.2084 455.259C25.0426 441.088 15.2916 424.824 8.75808 406.627C5.14588 396.561 2.71801 386.199 1.29682 375.619C0.0730155 366.58 -0.16385 357.481 0.0927544 348.362C0.0927544 347.672 0.0927544 347 0.0927544 346.31C0.625702 341.79 0.882306 337.25 1.53369 332.75C2.99436 322.605 5.42223 312.697 8.89626 303.065C14.5218 287.433 22.5358 273.144 32.9973 260.236C44.9196 245.531 59.171 233.59 75.6726 224.314C90.5951 215.945 106.505 210.34 123.302 207.162C127.586 206.353 131.908 205.761 136.251 205.287C137.218 205.188 137.475 204.794 137.554 203.905C138.975 188.55 141.896 173.471 146.337 158.687C152.575 137.963 161.635 118.522 173.597 100.482C187.059 80.1924 203.462 62.6263 222.766 47.7839C249.216 27.4545 278.824 13.7766 311.255 6.17776C320.236 4.06587 329.316 2.5461 338.495 1.50003C344.515 0.809227 350.535 0.434219 356.575 0.0394745C358.076 0.0394745 359.556 0.0197372 361.056 0C363.188 0 365.339 0 367.471 0C368.971 0.0592117 370.452 0.157898 371.952 0C378.426 0.315796 384.901 0.78949 391.335 1.59872C402.35 2.98032 413.226 5.11195 423.924 8.09227C437.781 11.9608 451.124 17.1319 463.895 23.7439C473.508 28.7177 482.548 34.5599 491.273 40.935C499.484 46.9352 507.538 53.1524 515.038 60.021C522.006 66.3961 528.323 73.3831 534.047 80.8635C542.14 91.4229 549.266 102.634 556.608 113.687C557.714 115.344 558.859 116.983 559.885 118.7C560.418 119.568 561.03 119.825 562.017 119.825C566.951 119.785 571.866 119.726 576.801 119.825C594.823 120.16 612.588 122.331 629.977 127.207C652.874 133.621 673.442 144.556 692.174 159.082C700.563 165.595 708.538 172.582 715.861 180.28C729.816 194.925 741.304 211.307 750.029 229.584C757.076 244.327 762.089 259.762 765.109 275.828C766.57 283.545 767.596 291.322 768.149 299.157C768.327 301.526 768.327 303.894 768.484 306.243L768.445 306.283Z" fill="white"/>
</svg>
