<svg width="1624" height="1102" viewBox="0 0 1624 1102" fill="none" xmlns="http://www.w3.org/2000/svg">
<path fill-rule="evenodd" clip-rule="evenodd" d="M219.766 992.284C219.766 1008.52 216.887 1023.33 211.126 1036.73C205.369 1050.13 197.534 1061.67 187.625 1071.33C177.716 1080.86 166.061 1088.27 152.669 1093.55C139.414 1098.84 125.017 1101.48 109.883 1101.48C94.7492 1101.48 80.4886 1098.78 67.0966 1093.36C53.8364 1087.95 42.1861 1080.42 32.1409 1070.75C22.2322 1061.09 14.397 1049.62 8.64002 1036.35C2.87849 1022.95 0 1008.26 0 992.288V808.303H55.0415V904.933C57.9882 901.323 61.5397 898.102 65.6914 895.269C69.9751 892.432 74.527 890.114 79.3472 888.311C84.3039 886.508 89.3924 885.157 94.6174 884.254C99.8378 883.224 104.926 882.708 109.883 882.708C125.148 882.708 139.414 885.478 152.669 891.017C166.061 896.426 177.716 904.03 187.625 913.821C197.534 923.612 205.369 935.205 211.126 948.606C216.887 961.876 219.766 976.05 219.766 992.284ZM164.524 992.284C164.524 984.296 163.051 976.886 160.104 970.059C157.289 963.101 153.406 957.11 148.454 952.085C143.497 947.061 137.672 943.13 130.974 940.297C124.412 937.464 117.382 936.046 109.883 936.046C102.384 936.046 95.2858 937.654 88.5921 940.876C82.0257 943.966 76.2687 948.155 71.312 953.436C66.3599 958.592 62.4764 964.583 59.6616 971.41C56.8513 978.11 55.4462 985.068 55.4462 992.284C55.4462 1000.27 56.8513 1007.68 59.6616 1014.51C62.4764 1021.34 66.3599 1027.26 71.312 1032.29C76.2687 1037.31 82.0257 1041.31 88.5921 1044.27C95.2858 1047.1 102.384 1048.52 109.883 1048.52C117.382 1048.52 124.412 1047.1 130.974 1044.27C137.672 1041.31 143.497 1037.31 148.454 1032.29C153.406 1027.26 157.289 1021.34 160.104 1014.51C163.051 1007.68 164.524 1000.27 164.524 992.284Z" fill="#232F3E"/>
<path d="M445.142 931.392L405.057 970.328C403.052 964.902 400.312 960.065 396.836 955.803C393.366 951.415 389.423 947.733 385.013 944.762C380.739 941.79 376.061 939.53 370.984 937.981C365.907 936.433 360.694 935.658 355.35 935.658C347.868 935.658 340.786 937.144 334.107 940.115C327.556 943.086 321.812 947.28 316.866 952.706C312.057 958 308.251 964.332 305.442 971.691C302.638 979.056 301.236 987.19 301.236 996.103C301.236 1003.34 302.638 1010.12 305.442 1016.44C308.251 1022.77 312.057 1028.33 316.866 1033.11C321.812 1037.88 327.556 1041.63 334.107 1044.34C340.786 1047.06 347.868 1048.41 355.35 1048.41C360.694 1048.41 365.839 1047.7 370.785 1046.28C375.725 1044.85 380.335 1042.85 384.614 1040.27C389.024 1037.56 392.898 1034.33 396.237 1030.58C399.713 1026.71 402.517 1022.45 404.654 1017.8L444.738 1056.73C439.661 1063.71 433.781 1069.97 427.103 1075.53C420.556 1081.08 413.406 1085.79 405.656 1089.67C398.039 1093.54 389.958 1096.45 381.406 1098.38C372.99 1100.45 364.301 1101.48 355.35 1101.48C340.25 1101.48 326.022 1098.77 312.661 1093.35C299.431 1087.79 287.807 1080.24 277.784 1070.68C267.898 1061.12 260.081 1049.95 254.337 1037.16C248.588 1024.38 245.716 1010.69 245.716 996.094C245.716 980.206 248.588 965.355 254.337 951.537C260.081 937.719 267.898 925.708 277.784 915.504C287.807 905.173 299.431 897.039 312.661 891.096C326.022 885.154 340.25 882.183 355.35 882.183C364.301 882.183 373.053 883.279 381.605 885.476C390.289 887.672 398.506 890.902 406.26 895.164C414.141 899.294 421.354 904.398 427.906 910.467C434.585 916.541 440.328 923.516 445.142 931.392Z" fill="#232F3E"/>
<path d="M526.506 1101.48H471.097V808.303H526.506V1101.48Z" fill="#232F3E"/>
<path fill-rule="evenodd" clip-rule="evenodd" d="M771.983 992.036C771.983 1007.54 769.107 1022 763.356 1035.43V1035.42C757.601 1048.72 749.778 1060.28 739.875 1070.1C729.977 1079.79 718.339 1087.47 704.961 1093.15C691.714 1098.7 677.328 1101.48 662.214 1101.48C647.101 1101.48 632.851 1098.7 619.473 1093.15C606.231 1087.47 594.588 1079.79 584.558 1070.1C574.655 1060.28 566.828 1048.72 561.077 1035.42C555.326 1021.99 552.451 1007.78 552.451 992.027C552.451 976.27 555.326 961.676 561.077 948.243C566.828 934.813 574.655 923.255 584.558 913.566C594.588 903.752 606.231 896.065 619.473 890.512C632.851 884.96 646.96 882.183 662.214 882.183C677.469 882.183 691.714 884.833 704.961 890.128C718.339 895.295 729.977 902.719 739.875 912.407C749.778 921.968 757.601 933.527 763.356 947.088C769.107 960.521 771.983 975.504 771.983 992.036ZM716.799 992.036C716.799 983.512 715.327 975.826 712.383 968.982C709.576 962.007 705.697 956.069 700.745 951.159C695.794 946.118 689.974 942.309 683.288 939.728C676.733 937.015 669.705 935.66 662.214 935.66C654.724 935.66 647.633 937.015 640.946 939.728C634.391 942.314 628.635 946.123 623.688 951.159C618.873 956.065 615.057 962.007 612.25 968.982C609.438 975.826 608.034 983.512 608.034 992.036C608.034 1000.04 609.438 1007.47 612.25 1014.32C615.057 1021.16 618.873 1027.1 623.688 1032.14C628.635 1037.17 634.391 1041.18 640.946 1044.15C647.633 1046.99 654.719 1048.41 662.214 1048.41C669.71 1048.41 676.733 1047.06 683.288 1044.34C689.974 1041.63 695.794 1037.82 700.745 1032.91C705.697 1028.01 709.576 1022.07 712.383 1015.09C715.327 1008.11 716.799 1000.56 716.799 992.036Z" fill="#232F3E"/>
<path d="M894.012 1048.79H894.046C899.794 1048.79 905.21 1047.82 910.291 1045.88C915.24 1043.94 919.585 1041.1 923.326 1037.36C927.071 1033.61 930.082 1029.03 932.352 1023.6C934.49 1018.05 935.562 1011.79 935.562 1004.81V882.416H990.118V1004.81C990.118 1019.66 987.643 1033.09 982.694 1045.1C977.614 1056.99 970.726 1067.12 962.036 1075.52C953.21 1083.79 942.985 1090.18 931.349 1094.7C919.716 1099.22 907.28 1101.48 894.046 1101.48H894.012C880.777 1101.48 868.341 1099.22 856.709 1094.7C845.072 1090.18 834.847 1083.79 826.021 1075.52C817.331 1067.12 810.443 1056.99 805.363 1045.1C800.414 1033.09 797.94 1019.66 797.94 1004.81V882.416H852.496V1004.81C852.496 1011.79 853.567 1018.05 855.706 1023.6C857.976 1029.03 860.986 1033.61 864.732 1037.36C868.473 1041.1 872.818 1043.94 877.767 1045.88C882.847 1047.82 888.264 1048.79 894.012 1048.79Z" fill="#232F3E"/>
<path fill-rule="evenodd" clip-rule="evenodd" d="M1235.6 1101.48H1180.41V1083.83C1178.93 1084.89 1177.89 1085.67 1177.05 1086.31C1174.18 1088.48 1173.67 1088.86 1166.16 1092.18C1159.74 1095.02 1153.12 1097.28 1146.3 1098.96C1139.61 1100.64 1132.79 1101.48 1125.83 1101.48C1110.71 1101.48 1096.47 1098.77 1083.09 1093.34C1069.84 1087.79 1058.21 1080.17 1048.17 1070.49C1038.27 1060.67 1030.45 1049.11 1024.69 1035.81C1018.94 1022.37 1016.06 1007.65 1016.06 992.024C1016.06 976.399 1018.94 961.87 1024.69 948.436C1030.45 935.008 1038.27 923.382 1048.17 913.567C1058.21 903.753 1069.84 896.067 1083.09 890.514C1096.47 884.961 1110.71 882.185 1125.83 882.185C1130.65 882.185 1135.6 882.575 1140.68 883.349C1145.9 884.124 1150.91 885.414 1155.73 887.221C1160.68 888.902 1165.3 891.162 1169.57 894.001C1173.86 896.846 1177.47 900.333 1180.41 904.464V809.12H1235.6V1101.48ZM1180.41 992.029C1180.41 984.796 1178.94 977.821 1176 971.105C1173.19 964.261 1169.31 958.256 1164.36 953.088C1159.41 947.793 1153.59 943.595 1146.9 940.497C1140.34 937.272 1133.32 935.655 1125.83 935.655C1118.34 935.655 1111.25 936.946 1104.56 939.528C1098 942.109 1092.25 945.855 1087.3 950.764C1082.49 955.543 1078.67 961.417 1075.86 968.392C1073.05 975.362 1071.65 983.242 1071.65 992.024C1071.65 999.647 1073.05 1006.88 1075.86 1013.72C1078.67 1020.57 1082.49 1026.57 1087.3 1031.74C1092.25 1036.91 1098 1040.97 1104.56 1043.95C1111.25 1046.92 1118.34 1048.4 1125.83 1048.4C1133.32 1048.4 1140.34 1046.85 1146.9 1043.75C1153.59 1040.52 1159.41 1036.33 1164.36 1031.16C1169.31 1025.87 1173.19 1019.86 1176 1013.14C1178.94 1006.3 1180.41 999.262 1180.41 992.029Z" fill="#232F3E"/>
<path fill-rule="evenodd" clip-rule="evenodd" d="M1475.94 988.394C1475.94 994.507 1475.55 1000.87 1474.79 1007.5H1326.63C1327.65 1020.74 1331.86 1030.93 1339.26 1038.06C1346.92 1044.94 1356.24 1048.38 1367.21 1048.38C1383.55 1048.38 1394.9 1041.5 1401.28 1027.75H1470.96C1467.39 1041.75 1460.88 1054.36 1451.43 1065.57C1442.25 1076.78 1430.63 1085.56 1416.6 1091.93C1402.56 1098.3 1386.86 1101.48 1369.51 1101.48C1348.58 1101.48 1329.95 1097.02 1313.61 1088.11C1297.28 1079.2 1284.52 1066.46 1275.33 1049.9C1266.14 1033.35 1261.55 1013.99 1261.55 991.832C1261.55 969.673 1266.01 950.316 1274.95 933.76C1284.14 917.205 1296.9 904.47 1313.23 895.555C1329.57 886.64 1348.32 882.183 1369.51 882.183C1390.18 882.183 1408.56 886.513 1424.64 895.173C1440.72 903.833 1453.22 916.186 1462.15 932.232C1471.34 948.278 1475.94 966.999 1475.94 988.394ZM1408.94 971.201C1408.94 959.995 1405.11 951.08 1397.45 944.458C1389.8 937.836 1380.23 934.524 1368.74 934.524C1357.77 934.524 1348.45 937.708 1340.79 944.076C1333.39 950.443 1328.8 959.485 1327.01 971.201H1408.94Z" fill="#232F3E"/>
<path d="M1623.23 882.881C1607.74 882.881 1565.86 888.863 1557.65 902.754V882.881H1501.89V1101.6H1557.65V984.349C1557.65 966.558 1565.6 955.713 1573.08 948.751C1580.56 941.532 1591.78 937.922 1606.75 937.922H1623.23V882.881Z" fill="#232F3E"/>
<path d="M1385.81 457.763C1385.81 459.267 1385.81 460.742 1385.81 462.247C1385.81 468.618 1385.81 474.961 1385.81 481.332C1385.42 505.905 1381.44 529.887 1374.39 553.368C1364.1 587.735 1347.22 618.62 1324.8 646.555C1309.13 666.054 1291.4 683.458 1271.96 699.122C1265.71 704.166 1258.69 708.09 1251.84 712.249C1230.81 724.963 1208.86 735.76 1185.67 743.99C1168.95 749.949 1151.83 754.314 1134.28 756.94C1125.81 758.208 1117.26 758.887 1108.7 759.359C1102.92 759.359 1097.11 759.359 1091.33 759.359C1081.65 758.916 1071.97 758.238 1062.36 756.999C1047.02 754.993 1031.88 751.866 1017.01 747.53C977.483 735.966 941.727 717.175 909.925 691.039C875.674 662.898 848.887 628.885 830.272 588.59C820.566 567.616 813.692 545.728 809.739 522.926C807.585 510.595 806.435 498.206 805.845 485.728C805.461 478.087 805.432 470.447 805.402 462.807C805.402 460.034 805.402 460.034 802.688 460.034C793.838 460.034 784.958 460.093 776.108 460.034C764.307 459.946 754.247 452.305 751.002 440.978C748.495 432.187 750.471 424.311 756.43 417.556C765.34 407.497 774.426 397.644 783.453 387.703C799.178 370.358 814.902 353.042 830.626 335.697C837.205 328.44 843.783 321.213 850.392 313.956C855.613 308.233 862.015 305.077 869.833 304.929C877.562 304.782 884.023 307.555 889.333 313.101C892.372 316.257 895.263 319.561 898.213 322.806C910.367 336.198 922.522 349.591 934.676 362.983C951.079 381.066 967.57 399.119 983.884 417.29C990.375 424.488 992.41 432.954 989.195 442.217C985.949 451.568 979.253 457.291 969.576 459.503C967.57 459.975 965.505 460.064 963.47 460.064C953.97 460.064 944.441 460.064 934.942 460.064C934.293 460.064 933.644 460.093 932.995 460.064C931.785 459.975 931.343 460.506 931.372 461.716C931.372 465.078 931.372 468.441 931.313 471.775C930.635 509.091 942.73 542.1 965.682 571.156C987.277 598.502 1015.07 617.027 1048.29 627.44C1060.59 631.304 1073.18 633.753 1086.08 634.697C1131.74 638.06 1172.93 626.201 1208.86 597.705C1238.57 574.136 1257.86 543.634 1266.36 506.583C1269.63 492.335 1270.75 477.822 1269.78 463.25C1267.36 426.848 1254 394.871 1229.84 367.585C1205.05 339.59 1174.14 321.98 1137.67 313.956C1124.52 311.065 1111.18 310.062 1097.7 310.003C1082.83 309.944 1068.14 308.41 1053.74 304.369C1032.53 298.41 1015.45 286.434 1001.79 269.265C993.708 259.088 986.923 248.056 980.551 236.758C973.087 223.542 965.712 210.238 958.248 197.023C950.961 184.161 941.491 173.04 930.517 163.217C900.721 136.55 865.791 119.942 827.056 111.093C815.226 108.379 803.249 106.874 791.094 106.284C777.907 105.635 764.838 106.343 751.769 108.054C707.931 113.806 669.078 131.004 635.004 159.028C609.957 179.618 590.014 204.338 575.382 233.306C566.532 250.799 560.307 269.177 557.15 288.528C556 295.608 555.203 302.746 555.233 309.944C555.233 317.673 555.056 325.402 554.2 333.101C552.666 346.582 549.185 359.443 542.016 371.095C532.133 387.172 517.678 396.995 499.652 401.804C490.507 404.252 481.185 405.284 471.715 405.255C462.275 405.196 452.923 406.287 443.748 408.559C424.631 413.279 407.815 422.335 393.389 435.757C376.869 451.185 365.511 469.798 360.466 491.804C351.734 529.769 359.965 563.929 385.306 593.575C402.8 614.048 425.369 626.054 451.713 631.009C458.233 632.248 464.871 632.484 471.479 632.396C498.443 631.983 525.377 632.307 552.342 632.278C588.067 632.248 623.793 632.307 659.519 632.337C695.157 632.337 730.764 632.396 766.402 632.425C766.785 632.425 767.139 632.425 767.523 632.425C768.919 632.465 769.627 633.212 769.647 634.667C769.647 635.139 769.647 635.611 769.647 636.054C769.647 672.986 769.647 709.889 769.647 746.822C769.647 747.294 769.647 747.766 769.647 748.208C769.608 749.604 768.87 750.322 767.434 750.362C766.962 750.362 766.49 750.362 766.048 750.362C665.036 750.362 564.024 750.362 463.012 750.362C435.015 750.362 407.697 746.173 381.235 736.881C347.722 725.111 318.633 706.467 294.413 680.42C274.736 659.24 260.162 634.933 250.397 607.735C244.999 592.69 241.37 577.203 239.246 561.392C237.417 547.882 237.063 534.283 237.446 520.654C237.446 519.622 237.446 518.619 237.446 517.586C238.243 510.831 238.626 504.046 239.6 497.321C241.783 482.158 245.412 467.35 250.604 452.954C259.012 429.591 270.989 408.234 286.625 388.942C304.443 366.965 325.743 349.119 350.406 335.254C372.709 322.747 396.487 314.369 421.592 309.62C427.994 308.41 434.455 307.525 440.945 306.817C442.391 306.67 442.774 306.08 442.892 304.752C445.016 281.802 449.383 259.265 456.02 237.171C465.343 206.197 478.884 177.14 496.761 150.179C516.881 119.854 541.397 93.5998 570.249 71.4167C609.78 41.0329 654.032 20.5902 702.502 9.23313C715.925 6.07676 729.496 3.80535 743.214 2.24191C752.212 1.20945 761.21 0.648974 770.237 0.0589976C772.479 0.0589976 774.692 0.0294988 776.934 0C780.12 0 783.336 0 786.522 0C788.764 0.0884965 790.976 0.235991 793.218 0C802.895 0.471981 812.571 1.17995 822.189 2.3894C838.65 4.45432 854.905 7.6402 870.895 12.0945C891.605 17.8763 911.547 25.605 930.635 35.4871C945.002 42.9208 958.513 51.6524 971.553 61.1806C983.825 70.1482 995.862 79.4403 1007.07 89.7059C1017.49 99.234 1026.93 109.677 1035.48 120.857C1047.58 136.639 1058.23 153.394 1069.2 169.913C1070.85 172.391 1072.56 174.84 1074.1 177.406C1074.9 178.704 1075.81 179.087 1077.28 179.087C1084.66 179.028 1092.01 178.94 1099.38 179.087C1126.32 179.589 1152.87 182.834 1178.86 190.12C1213.08 199.707 1243.82 216.049 1271.82 237.761C1284.35 247.495 1296.27 257.938 1307.22 269.442C1328.07 291.33 1345.24 315.814 1358.28 343.13C1368.82 365.166 1376.31 388.234 1380.82 412.246C1383.01 423.78 1384.54 435.403 1385.37 447.114C1385.63 450.654 1385.63 454.193 1385.87 457.704L1385.81 457.763Z" fill="#232F3E"/>
</svg>
