<svg width="1488" height="984" viewBox="0 0 1488 984" fill="none" xmlns="http://www.w3.org/2000/svg">
<path d="M1487.88 593.03C1487.88 594.979 1487.88 596.89 1487.88 598.839C1487.88 607.093 1487.88 615.31 1487.88 623.564C1487.38 655.398 1482.22 686.467 1473.09 716.887C1459.75 761.408 1437.89 801.42 1408.84 837.61C1388.55 862.871 1365.58 885.418 1340.39 905.71C1332.29 912.245 1323.19 917.328 1314.33 922.716C1287.08 939.187 1258.64 953.174 1228.6 963.836C1206.93 971.556 1184.77 977.212 1162.03 980.613C1151.06 982.256 1139.97 983.135 1128.89 983.747C1121.4 983.747 1113.87 983.747 1106.38 983.747C1093.84 983.173 1081.31 982.294 1068.85 980.689C1048.98 978.091 1029.37 974.04 1010.11 968.422C958.894 953.442 912.573 929.098 871.373 895.239C827.002 858.781 792.299 814.719 768.183 762.516C755.609 735.345 746.704 706.989 741.583 677.448C738.793 661.474 737.302 645.424 736.538 629.258C736.041 619.361 736.003 609.463 735.965 599.565C735.965 595.973 735.965 595.973 732.449 595.973C720.983 595.973 709.479 596.049 698.014 595.973C682.726 595.858 669.694 585.96 665.49 571.285C662.241 559.897 664.802 549.693 672.522 540.942C684.064 527.911 695.835 515.147 707.53 502.268C727.901 479.797 748.271 457.365 768.642 434.894C777.164 425.493 785.687 416.13 794.248 406.729C801.013 399.315 809.306 395.226 819.434 395.035C829.448 394.844 837.817 398.436 844.697 405.621C848.633 409.71 852.379 413.99 856.201 418.194C871.947 435.543 887.693 452.893 903.439 470.243C924.688 493.669 946.053 517.057 967.188 540.598C975.596 549.923 978.233 560.891 974.067 572.89C969.863 585.005 961.187 592.419 948.651 595.285C946.053 595.896 943.377 596.011 940.74 596.011C928.434 596.011 916.089 596.011 903.783 596.011C902.942 596.011 902.101 596.049 901.26 596.011C899.693 595.896 899.12 596.584 899.158 598.151C899.158 602.508 899.158 606.864 899.082 611.182C898.203 659.525 913.873 702.289 943.607 739.931C971.583 775.357 1007.58 799.356 1050.62 812.846C1066.56 817.853 1082.88 821.024 1099.58 822.247C1158.74 826.604 1212.09 811.241 1258.64 774.325C1297.13 743.791 1322.12 704.276 1333.13 656.277C1337.37 637.819 1338.83 619.017 1337.56 600.138C1334.43 552.98 1317.12 511.554 1285.82 476.205C1253.71 439.938 1213.66 417.124 1166.42 406.729C1149.38 402.984 1132.1 401.684 1114.64 401.608C1095.37 401.532 1076.34 399.544 1057.69 394.309C1030.21 386.589 1008.08 371.074 990.386 348.832C979.914 335.648 971.124 321.355 962.869 306.719C953.2 289.598 943.645 272.363 933.976 255.242C924.536 238.58 912.267 224.173 898.05 211.447C859.449 176.9 814.198 155.385 764.017 143.92C748.692 140.404 733.175 138.455 717.429 137.691C700.345 136.85 683.414 137.767 666.483 139.984C609.69 147.436 559.356 169.716 515.214 206.02C482.766 232.695 456.931 264.72 437.974 302.247C426.509 324.909 418.444 348.718 414.355 373.787C412.864 382.959 411.833 392.207 411.871 401.532C411.871 411.544 411.641 421.557 410.533 431.531C408.546 448.995 404.036 465.657 394.749 480.753C381.946 501.58 363.218 514.306 339.867 520.535C328.019 523.707 315.942 525.044 303.674 525.006C291.444 524.93 279.329 526.344 267.443 529.286C242.677 535.401 220.892 547.133 202.203 564.521C180.801 584.508 166.087 608.622 159.551 637.131C148.239 686.314 158.902 730.568 191.731 768.975C214.395 795.496 243.632 811.05 277.762 817.47C286.208 819.075 294.807 819.381 303.368 819.267C338.3 818.732 373.194 819.152 408.125 819.114C454.408 819.075 500.691 819.152 546.974 819.19C593.142 819.19 639.272 819.267 685.44 819.305C685.937 819.305 686.395 819.305 686.892 819.305C688.701 819.356 689.618 820.324 689.644 822.209C689.644 822.821 689.644 823.432 689.644 824.005C689.644 871.851 689.644 919.659 689.644 967.505C689.644 968.116 689.644 968.728 689.644 969.301C689.593 971.11 688.637 972.04 686.777 972.091C686.166 972.091 685.554 972.091 684.981 972.091C554.12 972.091 423.26 972.091 292.399 972.091C256.13 972.091 220.739 966.664 186.457 954.626C143.041 939.378 105.357 915.226 73.9798 881.482C48.4879 854.043 29.6079 822.553 16.9576 787.318C9.96356 767.828 5.26267 747.765 2.51093 727.281C0.141374 709.779 -0.317249 692.161 0.179593 674.506C0.179593 673.168 0.179593 671.869 0.179593 670.531C1.2115 661.78 1.70834 652.99 2.96955 644.277C5.79773 624.634 10.4986 605.45 17.2251 586.801C28.1174 556.534 43.6342 528.866 63.8901 503.873C86.9741 475.402 114.568 452.282 146.519 434.321C175.412 418.117 206.216 407.264 238.74 401.111C247.034 399.544 255.404 398.398 263.812 397.481C265.684 397.29 266.181 396.525 266.334 394.806C269.086 365.074 274.742 335.877 283.341 307.254C295.419 267.127 312.961 229.485 336.121 194.556C362.187 155.27 393.946 121.258 431.324 92.52C482.537 53.1579 539.865 26.6745 602.658 11.9615C620.048 7.87242 637.628 4.92982 655.4 2.90439C667.057 1.56684 678.713 0.840744 690.408 0.0764312C693.313 0.0764312 696.179 0.0382156 699.084 0C703.211 0 707.377 0 711.505 0C714.409 0.114647 717.276 0.305725 720.18 0C732.716 0.61145 745.252 1.52863 757.711 3.09547C779.037 5.77056 800.096 9.89785 820.81 15.6684C847.64 23.1587 873.475 33.1712 898.203 45.9734C916.815 55.6037 934.319 66.9156 951.212 79.2592C967.111 90.8767 982.704 102.915 997.227 116.214C1010.72 128.557 1022.95 142.086 1034.03 156.569C1049.7 177.015 1063.5 198.721 1077.72 220.122C1079.86 223.332 1082.07 226.504 1084.06 229.829C1085.09 231.51 1086.28 232.007 1088.19 232.007C1097.74 231.931 1107.26 231.816 1116.81 232.007C1151.71 232.657 1186.1 236.86 1219.77 246.3C1264.11 258.72 1303.93 279.891 1340.2 308.018C1356.44 320.629 1371.88 334.157 1386.06 349.061C1413.08 377.417 1435.33 409.136 1452.22 444.524C1465.86 473.071 1475.57 502.956 1481.42 534.063C1484.25 549.006 1486.23 564.063 1487.31 579.234C1487.65 583.82 1487.65 588.406 1487.95 592.954L1487.88 593.03Z" fill="#232F3E"/>
</svg>
